<svg width="320" height="1253" viewBox="0 0 320 1253" fill="none" xmlns="http://www.w3.org/2000/svg">
<g clip-path="url(#clip0_65_180)">
<rect width="320" height="1253" fill="#0C3803"/>
<path d="M333.673 114L333.673 207.5L-6.03731 612.194L-52 573.627L333.673 114Z" fill="#D10000"/>
<path d="M337.673 371L337.673 464.5L-2.03731 869.194L-48 830.627L337.673 371Z" fill="#D10000"/>
<path d="M319.673 655L319.673 748.5L-20.0373 1153.19L-66 1114.63L319.673 655Z" fill="#D10000"/>
<path d="M321.673 916L321.673 1009.5L-18.0373 1414.19L-64 1375.63L321.673 916Z" fill="#D10000"/>
<path d="M330.673 1168L330.673 1261.5L-9.03731 1666.19L-55 1627.63L330.673 1168Z" fill="#D10000"/>
<path d="M329.673 -143L329.673 -49.5L-10.0373 355.194L-56 316.627L329.673 -143Z" fill="#D10000"/>
<path d="M31.9707 -51.9128L67.3367 -0.560335L-11.4806 93.2138L-57.4433 54.6466L31.9707 -51.9128Z" fill="#D10000"/>
</g>
<defs>
<clipPath id="clip0_65_180">
<rect width="320" height="1253" fill="white"/>
</clipPath>
</defs>
</svg>
