<svg width="115" height="45" viewBox="0 0 115 45" fill="none" xmlns="http://www.w3.org/2000/svg">
<g filter="url(#filter0_dd_99_26)">
<rect x="5" y="5" width="105" height="35" rx="15" fill="white"/>
</g>
<path d="M10.114 24.564H17.408L16.596 26.482C16.47 26.776 16.092 27 15.756 27H6.978L10.156 19.51V17.676H14.258L11.612 23.906L10.114 24.564ZM30.303 17.676C31.927 17.676 32.767 18.768 32.207 20.112L30.289 24.606C29.729 25.95 27.951 27.042 26.327 27.042H19.957C18.333 27.042 17.479 25.95 18.053 24.606L19.957 20.112C20.531 18.768 22.309 17.676 23.933 17.676H30.303ZM28.735 20.392C28.805 20.224 28.693 20.084 28.497 20.084H22.141L23.093 20.616L21.539 24.284C21.469 24.452 21.567 24.592 21.777 24.592H26.579C26.789 24.592 27.013 24.452 27.083 24.284L28.735 20.392ZM45.9701 17.676L45.1721 19.538C45.0601 19.818 44.6821 20.056 44.3321 20.056H35.4981L36.4921 20.588L34.8261 24.536H39.6281C39.6981 24.536 39.7681 24.494 39.7961 24.438L40.1741 23.528C40.2021 23.472 40.1601 23.43 40.0901 23.43H37.7101C37.5141 23.43 37.4021 23.29 37.4721 23.122L38.2841 21.19H43.5201C44.0521 21.19 44.3181 21.554 44.1361 21.988L42.2321 26.482C41.9801 27.056 41.2801 27 41.0561 27L33.3561 26.986C31.7321 26.986 30.8781 25.894 31.4521 24.55L33.3421 20.112C33.9161 18.768 35.6941 17.676 37.3181 17.676H45.9701ZM58.6506 17.676L57.5306 20.336H55.9066L57.2506 20.98L54.9126 26.482C54.8006 26.776 54.4226 27 54.0726 27H51.3706L54.5486 19.51V17.676H58.6506ZM71.7885 17.676L68.0505 26.482C67.9245 26.762 67.5465 27 67.1965 27H64.9145C64.7325 27 64.5925 26.93 64.5225 26.818L62.5345 22.534V22.52L61.7225 20.602L61.5545 22.59L59.9025 26.482C59.7905 26.762 59.4125 27 59.0625 27H56.3745L59.5525 19.496V17.676H63.5845C63.7665 17.676 63.9205 17.746 63.9905 17.858L66.1185 22.548C66.1885 22.646 66.3705 22.618 66.4125 22.506L68.2465 18.194C68.3725 17.9 68.7505 17.676 69.0865 17.676H71.7885Z" fill="black"/>
<path d="M73.6374 27.0202C74.6097 30.1985 76.5766 32.9808 79.2487 34.9574C81.9208 36.934 85.1569 38.0006 88.4806 38C97.0521 38 104 31.0599 104 22.5C104 13.9401 97.0521 7 88.4826 7C84.548 6.99848 80.7599 8.49218 77.8853 11.1787C75.0107 13.8651 73.2644 17.5436 73 21.4693L73.0058 21.4809L81.3448 24.9083C82.0969 24.4104 82.9877 24.1641 83.8888 24.205L87.6862 18.6948L87.6843 18.6173C87.6859 17.0544 88.3072 15.556 89.4122 14.4507C90.5171 13.3454 92.0153 12.7235 93.5782 12.7214C95.141 12.7235 96.6393 13.3454 97.7442 14.4507C98.8491 15.556 99.4705 17.0544 99.4721 18.6173C99.4715 19.4026 99.3142 20.1799 99.0094 20.9037C98.7047 21.6274 98.2586 22.2832 97.6973 22.8324C97.1359 23.3816 96.4707 23.8133 95.7404 24.1023C95.0102 24.3912 94.2297 24.5315 93.4445 24.515L88.0118 28.39C88.0302 29.1078 87.8689 29.8188 87.5425 30.4583C87.2161 31.0979 86.735 31.6457 86.143 32.0519C85.551 32.4582 84.8667 32.71 84.1526 32.7844C83.4385 32.8588 82.717 32.7536 82.0539 32.4781C81.4175 32.2129 80.8543 31.7984 80.4118 31.2696C79.9694 30.7409 79.6607 30.1133 79.5119 29.4401L73.6394 27.0202H73.6374Z" fill="url(#paint0_linear_99_26)"/>
<path d="M82.4318 31.5733C83.239 31.8814 84.1345 31.863 84.9284 31.5219C85.7222 31.1809 86.352 30.544 86.6842 29.7464C87.0164 28.9487 87.0248 28.0531 86.7076 27.2493C86.3905 26.4456 85.7727 25.797 84.9854 25.4411C84.2048 25.1154 83.3289 25.1015 82.5383 25.4024L84.5204 26.2239C84.8168 26.3473 85.086 26.5279 85.3127 26.7553C85.5393 26.9827 85.7189 27.2526 85.8413 27.5495C85.9636 27.8463 86.0263 28.1644 86.0257 28.4854C86.0251 28.8065 85.9613 29.1243 85.8379 29.4208C85.7145 29.7172 85.5339 29.9864 85.3065 30.213C85.079 30.4396 84.8092 30.6193 84.5123 30.7416C84.2155 30.8639 83.8974 30.9266 83.5764 30.926C83.2553 30.9255 82.9375 30.8617 82.641 30.7383L80.7229 29.9439C81.072 30.6788 81.6807 31.2586 82.4318 31.5714V31.5733ZM89.6509 18.6173C89.6514 19.659 90.0652 20.6581 90.8015 21.3951C91.5378 22.1321 92.5364 22.5469 93.5782 22.5484C94.62 22.5469 95.6186 22.1321 96.3549 21.3951C97.0912 20.6581 97.505 19.659 97.5055 18.6173C97.504 17.5761 97.0897 16.5781 96.3535 15.8419C95.6174 15.1057 94.6193 14.6915 93.5782 14.6899C92.5371 14.6915 91.5391 15.1057 90.8029 15.8419C90.0667 16.5781 89.6524 17.5761 89.6509 18.6173ZM93.584 15.6587C93.9718 15.6589 94.3557 15.7356 94.7139 15.8842C95.072 16.0328 95.3974 16.2505 95.6714 16.5249C95.9454 16.7993 96.1627 17.1249 96.3108 17.4833C96.459 17.8416 96.5351 18.2256 96.5348 18.6134C96.5346 19.0011 96.458 19.3851 96.3093 19.7432C96.1607 20.1013 95.943 20.4267 95.6686 20.7007C95.3943 20.9747 95.0686 21.192 94.7103 21.3402C94.3519 21.4883 93.9679 21.5644 93.5802 21.5642C92.797 21.5637 92.0462 21.2521 91.4928 20.698C90.9394 20.1439 90.6288 19.3926 90.6293 18.6095C90.6299 17.8264 90.9414 17.0755 91.4956 16.5222C92.0497 15.9688 92.8009 15.6582 93.584 15.6587Z" fill="url(#paint1_linear_99_26)"/>
<defs>
<filter id="filter0_dd_99_26" x="0.464" y="0.464" width="114.072" height="44.072" filterUnits="userSpaceOnUse" color-interpolation-filters="sRGB">
<feFlood flood-opacity="0" result="BackgroundImageFix"/>
<feColorMatrix in="SourceAlpha" type="matrix" values="0 0 0 0 0 0 0 0 0 0 0 0 0 0 0 0 0 0 127 0" result="hardAlpha"/>
<feOffset/>
<feGaussianBlur stdDeviation="1.296"/>
<feColorMatrix type="matrix" values="0 0 0 0 1 0 0 0 0 1 0 0 0 0 1 0 0 0 1 0"/>
<feBlend mode="normal" in2="BackgroundImageFix" result="effect1_dropShadow_99_26"/>
<feColorMatrix in="SourceAlpha" type="matrix" values="0 0 0 0 0 0 0 0 0 0 0 0 0 0 0 0 0 0 127 0" result="hardAlpha"/>
<feOffset/>
<feGaussianBlur stdDeviation="2.268"/>
<feColorMatrix type="matrix" values="0 0 0 0 1 0 0 0 0 1 0 0 0 0 1 0 0 0 1 0"/>
<feBlend mode="normal" in2="effect1_dropShadow_99_26" result="effect2_dropShadow_99_26"/>
<feBlend mode="normal" in="SourceGraphic" in2="effect2_dropShadow_99_26" result="shape"/>
</filter>
<linearGradient id="paint0_linear_99_26" x1="88.5" y1="7" x2="88.5" y2="38" gradientUnits="userSpaceOnUse">
<stop offset="0.135417" stop-color="#13192E"/>
<stop offset="1" stop-color="#0073A3"/>
</linearGradient>
<linearGradient id="paint1_linear_99_26" x1="89.1142" y1="14.6899" x2="89.1142" y2="31.7918" gradientUnits="userSpaceOnUse">
<stop stop-color="#0F2E4A"/>
<stop offset="1" stop-color="#07547A"/>
</linearGradient>
</defs>
</svg>
