<svg width="30" height="30" viewBox="0 0 30 30" fill="none" xmlns="http://www.w3.org/2000/svg">
<g clip-path="url(#clip0_47_1636)">
<path d="M0 14.4C0 7.61175 0 4.21766 2.10883 2.10883C4.21766 0 7.61175 0 14.4 0H15.6C22.3883 0 25.7823 0 27.8912 2.10883C30 4.21766 30 7.61175 30 14.4V15.6C30 22.3883 30 25.7823 27.8912 27.8912C25.7823 30 22.3883 30 15.6 30H14.4C7.61175 30 4.21766 30 2.10883 27.8912C0 25.7823 0 22.3883 0 15.6V14.4Z" fill="white"/>
<path d="M15.911 21.6C8.9411 21.6 4.96565 16.8703 4.8 9H8.29132C8.406 14.7766 10.9798 17.2234 13.0185 17.7279V9H16.3061V13.982C18.3194 13.7676 20.4343 11.4973 21.1478 9H24.4354C23.8874 12.0775 21.5939 14.3477 19.9629 15.2811C21.5939 16.0378 24.2061 18.018 25.2 21.6H21.5811C20.8039 19.2036 18.8673 17.3495 16.3061 17.0973V21.6H15.911Z" fill="black"/>
</g>
<defs>
<clipPath id="clip0_47_1636">
<rect width="30" height="30" fill="white"/>
</clipPath>
</defs>
</svg>
