<svg width="30" height="30" viewBox="0 0 30 30" fill="none" xmlns="http://www.w3.org/2000/svg">
<path d="M12 19.3734V10.6265L19.8 15L12 19.3734Z" fill="black"/>
<path d="M29.3671 7.98489C29.1964 7.36876 28.8621 6.80701 28.3977 6.35584C27.9333 5.90467 27.355 5.57991 26.7208 5.41407C24.3852 4.79999 15 4.79999 15 4.79999C15 4.79999 5.61479 4.79999 3.2792 5.41407C2.64499 5.57991 2.06674 5.90467 1.60233 6.35584C1.13791 6.80701 0.803624 7.36876 0.632915 7.98489C0.196809 10.2989 -0.0148219 12.6476 0.000806138 15C-0.0148219 17.3524 0.196809 19.7011 0.632915 22.0151C0.803624 22.6312 1.13791 23.193 1.60233 23.6441C2.06674 24.0953 2.64499 24.4201 3.2792 24.5859C5.61479 25.2 15 25.2 15 25.2C15 25.2 24.3852 25.2 26.7208 24.5859C27.355 24.4201 27.9333 24.0953 28.3977 23.6441C28.8621 23.193 29.1964 22.6312 29.3671 22.0151C29.8032 19.7011 30.0148 17.3524 29.9992 15C30.0148 12.6476 29.8032 10.2989 29.3671 7.98489ZM12.0002 19.3714V10.6286L19.789 15L12.0002 19.3714Z" fill="white"/>
</svg>
